<?xml version="1.0" encoding="UTF-8"?>
<svg id="_레이어_10" data-name="레이어_10" xmlns="http://www.w3.org/2000/svg" xmlns:xlink="http://www.w3.org/1999/xlink" viewBox="0 0 500 100">
  <defs>
    <style>
      .cls-1 {
        fill: #e5c8a9;
      }

      .cls-2 {
        fill: #232b31;
      }

      .cls-3 {
        fill: none;
        stroke: #2c373d;
        stroke-miterlimit: 10;
        stroke-width: 5px;
      }
    </style>
    <filter id="drop-shadow-1" x="-1444" y="199.05" width="1670" height="753" filterUnits="userSpaceOnUse">
      <feOffset dx="3" dy="3"/>
      <feGaussianBlur result="blur" stdDeviation="3"/>
      <feFlood flood-color="#000" flood-opacity="1"/>
      <feComposite in2="blur" operator="in"/>
      <feComposite in="SourceGraphic"/>
    </filter>
    <filter id="drop-shadow-2" x="-15" y="-331.95" width="430" height="49" filterUnits="userSpaceOnUse">
      <feOffset dx="2" dy="2"/>
      <feGaussianBlur result="blur-2" stdDeviation="1"/>
      <feFlood flood-color="#000" flood-opacity="1"/>
      <feComposite in2="blur-2" operator="in"/>
      <feComposite in="SourceGraphic"/>
    </filter>
  </defs>
  <rect class="cls-2" width="500" height="100"/>
  <line class="cls-3" x1="6.45" x2="6.45" y2="100"/>
  <line class="cls-3" x1="17.27" x2="17.27" y2="100"/>
  <line class="cls-3" x1="28.1" x2="28.1" y2="100"/>
  <line class="cls-3" x1="38.92" x2="38.92" y2="100"/>
  <line class="cls-3" x1="49.75" x2="49.75" y2="100"/>
  <line class="cls-3" x1="60.57" x2="60.57" y2="100"/>
  <line class="cls-3" x1="71.39" x2="71.39" y2="100"/>
  <line class="cls-3" x1="82.22" x2="82.22" y2="100"/>
  <line class="cls-3" x1="93.04" x2="93.04" y2="100"/>
  <line class="cls-3" x1="103.87" x2="103.87" y2="100"/>
  <line class="cls-3" x1="114.69" x2="114.69" y2="100"/>
  <line class="cls-3" x1="125.52" x2="125.52" y2="100"/>
  <line class="cls-3" x1="136.34" x2="136.34" y2="100"/>
  <line class="cls-3" x1="147.17" x2="147.17" y2="100"/>
  <line class="cls-3" x1="157.99" x2="157.99" y2="100"/>
  <line class="cls-3" x1="168.82" x2="168.82" y2="100"/>
  <line class="cls-3" x1="179.64" x2="179.64" y2="100"/>
  <line class="cls-3" x1="190.46" x2="190.46" y2="100"/>
  <line class="cls-3" x1="201.29" x2="201.29" y2="100"/>
  <line class="cls-3" x1="212.11" x2="212.11" y2="100"/>
  <line class="cls-3" x1="222.94" x2="222.94" y2="100"/>
  <line class="cls-3" x1="233.76" x2="233.76" y2="100"/>
  <line class="cls-3" x1="244.59" x2="244.59" y2="100"/>
  <line class="cls-3" x1="255.41" x2="255.41" y2="100"/>
  <line class="cls-3" x1="266.24" x2="266.24" y2="100"/>
  <line class="cls-3" x1="277.06" x2="277.06" y2="100"/>
  <line class="cls-3" x1="287.89" x2="287.89" y2="100"/>
  <line class="cls-3" x1="298.71" x2="298.71" y2="100"/>
  <line class="cls-3" x1="309.54" x2="309.54" y2="100"/>
  <line class="cls-3" x1="320.36" x2="320.36" y2="100"/>
  <line class="cls-3" x1="331.18" x2="331.18" y2="100"/>
  <line class="cls-3" x1="342.01" x2="342.01" y2="100"/>
  <line class="cls-3" x1="352.83" x2="352.83" y2="100"/>
  <line class="cls-3" x1="363.66" x2="363.66" y2="100"/>
  <line class="cls-3" x1="374.48" x2="374.48" y2="100"/>
  <line class="cls-3" x1="385.31" x2="385.31" y2="100"/>
  <line class="cls-3" x1="396.13" x2="396.13" y2="100"/>
  <line class="cls-3" x1="406.96" x2="406.96" y2="100"/>
  <line class="cls-3" x1="417.78" x2="417.78" y2="100"/>
  <line class="cls-3" x1="428.61" x2="428.61" y2="100"/>
  <line class="cls-3" x1="439.43" x2="439.43" y2="100"/>
  <line class="cls-3" x1="450.25" x2="450.25" y2="100"/>
  <line class="cls-3" x1="461.08" x2="461.08" y2="100"/>
  <line class="cls-3" x1="471.9" x2="471.9" y2="100"/>
  <line class="cls-3" x1="482.73" x2="482.73" y2="100"/>
  <line class="cls-3" x1="493.55" x2="493.55" y2="100"/>
  <g>
    <path d="M108.4,46.84c.44,1.85-.06,4.16-1.58,5.4-1.72,1.35-4.21.9-6.28.97-8.73-.21-17.35.43-25.97.26-2.95-.43-3.67-4.25-2.82-6.63.73-1.97,2.97-2.09,4.78-2.13,3.33-.15,1.98-2.61,1.48-5.06-.31-3.02-1.06-3.53-4.01-3.85-2.88-.43-3.12-4.16-2.34-6.68.62-1.86,2.74-2.21,4.52-2.19,6.41,0,12.91.26,19.32-.13,2.12-.04,4.25-.06,6.38-.2,1.67-.07,3.77-.15,4.94,1.19,1.44,1.74,1.23,5.62-.79,7.08-1.04.74-2.92.57-3.87,1.27-.98.71-.95,2.06-1.18,3.15-.21,1.37-1.04,2.88-.71,3.82,1.22,2.62,6.81-.7,8.09,3.6l.04.13ZM87.88,35.96c-3.06-.32-4.1.27-2.98,3.45,1.01,4.98.75,5.18,6.16,4.96,1.27.01,2.14-.92,2.31-2.12.3-1.66.79-3.33.88-5.01-.14-2.4-4.68-.99-6.23-1.26h-.14Z"/>
    <path d="M119.95,69.71c-1.89,10.46-15.23,14.42-22.08,5.87-5.83-6.78-2.76-17.31,5.8-19.94,8.51-3,17.79,5.03,16.3,13.92l-.02.14ZM102.04,67.9c.26,7.04,10.15,7.01,10.73-.15.15-7.53-10.71-7.44-10.73-.01v.16Z"/>
    <path d="M426.75,57.97c-6.38.24-12.85,0-19.26-.11-11.1-.21-22.34.45-33.37-.22-1.85-.32-3.45-2.6-1.84-3.99,1.02-.8,2.61-.73,3.89-.76,5.59.03,11.21-.05,16.82.09,1.55.06,3.7-.14,4.06-1.93.35-1.76-1.41-3.14-2.79-4.13-1.66-1.21-3.03-2.74-3.9-4.57-1.65-3.31-1.65-7.23.36-10.38,3-5.07,10.37-6.39,15.05-2.95,5.05,3.21,6.73,10.82,2.78,15.56-1.24,1.7-3.26,2.63-4.04,4.56-.82,1.93.23,3.81,2.24,3.96,6.5.29,13.05-.18,19.55-.17,5.21-.46,6.2,4.54.61,5.03h-.14ZM395.33,38.06c0,6.88,10.28,6.09,9.29-.59-.79-5.71-9.3-5.5-9.3.42v.16Z"/>
    <path d="M316.6,27.07c.31-3.49,5.93-4.61,8.13-2.13.82.92,1.05,2.24,1.07,3.47.09,8.46-.23,17.02.16,25.41.36,3.09.09,6.6-3.9,6.47-5-.6-4.72-3.34-4.97-7.35-.2-1.23-.91-1.99-2.15-2.18-1.24-.21-2.34-.52-3.64-.52-2.13,0-2.31-4.91-.84-5.5,1.61-.65,3.2-.36,4.7-1.07,1.7-.73,1.53-3.19-.41-3.41-1.03-.18-1.92.09-2.98-.23-1.73-.44-2.59-1.1-2.59-3.54,0-3.59,4.32-2.57,6.33-3.66,1.88-1.2.77-3.8,1.07-5.61l.02-.14Z"/>
    <path d="M307.65,34.93c.27,4.06.03,8.65.32,12.76.42,6.12-3.53,5.57-8.2,5.45-7.63,0-14.76.19-22.33.28-4.27.4-5.76-1.87-5.75-5.88-.12-5.15-.17-10.67-.32-15.86-.15-2,.25-4.52,2.69-4.62,3.05-.22,6.21.05,9.22.08,6.98-.33,13.99-.03,21-.21,2.03-.06,2.92,1.27,2.97,3.44.12,1.48.27,2.94.4,4.41v.14ZM288.51,44.52c1.9.01,3.91-.02,5.89-.09,1.99-.24,4.25.33,6.03-.66,1.2-.89.75-3.43.78-5.06.08-2.81-1.98-2.95-4.25-2.86-4.57.02-9.08,0-13.66.07-.81.03-1.78.13-2.35.68-1.02.92-.59,3.16-.53,4.75.05,1.3.41,2.72,1.78,3,2.01.35,4.2.1,6.16.18h.15Z"/>
    <path d="M212.63,69.81c.18,9.31-11.49,15.3-18.9,9.59-7.43-5.06-7.42-16.58.67-21.02,8.11-5.12,18.7,2,18.23,11.27v.16ZM195.47,69.02c-.1,3.15,3.07,6.08,6.23,5.09,2.66-.78,4.39-3.8,3.54-6.41-1.64-5.27-9.5-4.43-9.77,1.17v.15Z"/>
    <path d="M209.86,50.56c.11-6.17.05-12.4-.23-18.56,0-2.29-.89-5.11.77-7.01,1.68-1.65,5.97-2.1,7.38.19.89,1.55.17,4.13,1.02,5.49.93,1.49,3.08.49,4.88,1.11,1.2.38,2.32,1.39,2.49,2.66.24,3.02-3.7,3.44-5.85,3.97-1.45.4-2.12,2.16-.73,3.04,1.1.76,3.1.35,4.66.66,2.85.31,4.14,3.74,1.6,5.47-3.26,2.08-7.56-.97-7.17,5.12,0,2.67.38,6.65-2.86,7.23-6.31.62-6.03-4.48-5.97-9.23v-.15Z"/>
    <path d="M117.83,28.05c0-1.19.05-2.46.71-3.49,1.27-1.94,5.09-2.25,7.12-.87,2.02,1.64,1.54,4.7,1.53,7.04-.25,4.76-.17,9.57-.28,14.39-.07,2.78.04,5.54.23,8.32.41,4.34-.98,6.66-5.65,5.8-4.07-.81-3.27-4.72-3.89-7.88-.29-.91-.97-1.39-1.95-1.53-1.3-.17-2.8-.08-3.94-.86-1.65-1-2.18-3.34-.76-4.63,1.4-1.4,3.73-1.07,5.41-1.76,1.61-.68,1.33-2.78-.34-3.22-.94-.29-2.19-.14-3.26-.35-3.01-.32-4.8-4.2-1.75-5.87,1.74-1.17,4.91-.4,6.1-1.7.78-.87.7-2.13.72-3.24v-.15Z"/>
    <path d="M173.67,38.88c-.16-7.15,6.69-12.9,13.68-12.05,11.54,1.1,15.15,17.02,4.99,22.87-8.3,4.88-18.59-1.05-18.67-10.66v-.16ZM185.87,33.48c-6.83-.15-7.27,9.61-1.21,11.11,3.48.94,7.17-2.1,6.91-5.7-.14-2.8-2.69-5.48-5.54-5.41h-.16Z"/>
    <path d="M284.04,67.49c0,.81,0,1.62-.02,2.43-.02,2.39-.47,5.15,2.04,5.56,6.35.28,12.75.22,19.1.28,6.37,0,12.75-.02,19.13,0,1.94-.08,5.04.64,4.56,3.13-.96,2.57-4.71,1.52-6.89,1.72-12.85-.02-25.67-.05-38.55-.05-1.62-.05-3.67.1-4.99-.82-1.51-1.27-1.36-3.67-1.52-5.5-.12-3.15-.12-6.23-.15-9.37,0-1.21.06-2.58.78-3.56,1.12-1.55,4.04-2,5.52-.64,1.45,1.45.88,4.51.99,6.64v.15Z"/>
    <path d="M398.02,67.72c-6.08.03-12.18,0-18.3.02-.83-.01-1.74-.07-2.47-.41-1.78-.72-1.63-3.12,0-4.01,1.29-.77,2.95-.71,4.43-.73,13.57.14,27.19-.35,40.8-.35,3.65.07,4.48,2.28,4.56,5.55.07,3.9.05,7.77.13,11.66-.01,1.33.07,2.92-.71,4.02-1.37,1.85-5.35,1.51-5.93-.98-.75-3.81-.19-7.76-.33-11.65-.02-.99-.17-2.13-1.04-2.71-.64-.44-1.59-.52-2.41-.54-6.19.02-12.37.11-18.57.11h-.15Z"/>
  </g>
  <g>
    <path class="cls-1" d="M105.4,43.84c.44,1.85-.06,4.16-1.58,5.4-1.72,1.35-4.21.9-6.28.97-8.73-.21-17.35.43-25.97.26-2.95-.43-3.67-4.25-2.82-6.63.73-1.97,2.97-2.09,4.78-2.13,3.33-.15,1.98-2.61,1.48-5.06-.31-3.02-1.06-3.53-4.01-3.85-2.88-.43-3.12-4.16-2.34-6.68.62-1.86,2.74-2.21,4.52-2.19,6.41,0,12.91.26,19.32-.13,2.12-.04,4.25-.06,6.38-.2,1.67-.07,3.77-.15,4.94,1.19,1.44,1.74,1.23,5.62-.79,7.08-1.04.74-2.92.57-3.87,1.27-.98.71-.95,2.06-1.18,3.15-.21,1.37-1.04,2.88-.71,3.82,1.22,2.62,6.81-.7,8.09,3.6l.04.13ZM84.88,32.96c-3.06-.32-4.1.27-2.98,3.45,1.01,4.98.75,5.18,6.16,4.96,1.27.01,2.14-.92,2.31-2.12.3-1.66.79-3.33.88-5.01-.14-2.4-4.68-.99-6.23-1.26h-.14Z"/>
    <path class="cls-1" d="M116.95,66.71c-1.89,10.46-15.23,14.42-22.08,5.87-5.83-6.78-2.76-17.31,5.8-19.94,8.51-3,17.79,5.03,16.3,13.92l-.02.14ZM99.04,64.9c.26,7.04,10.15,7.01,10.73-.15.15-7.53-10.71-7.44-10.73-.01v.16Z"/>
    <path class="cls-1" d="M423.75,54.97c-6.38.24-12.85,0-19.26-.11-11.1-.21-22.34.45-33.37-.22-1.85-.32-3.45-2.6-1.84-3.99,1.02-.8,2.61-.73,3.89-.76,5.59.03,11.21-.05,16.82.09,1.55.06,3.7-.14,4.06-1.93.35-1.76-1.41-3.14-2.79-4.13-1.66-1.21-3.03-2.74-3.9-4.57-1.65-3.31-1.65-7.23.36-10.38,3-5.07,10.37-6.39,15.05-2.95,5.05,3.21,6.73,10.82,2.78,15.56-1.24,1.7-3.26,2.63-4.04,4.56-.82,1.93.23,3.81,2.24,3.96,6.5.29,13.05-.18,19.55-.17,5.21-.46,6.2,4.54.61,5.03h-.14ZM392.33,35.06c0,6.88,10.28,6.09,9.29-.59-.79-5.71-9.3-5.5-9.3.42v.16Z"/>
    <path class="cls-1" d="M313.6,24.07c.31-3.49,5.93-4.61,8.13-2.13.82.92,1.05,2.24,1.07,3.47.09,8.46-.23,17.02.16,25.41.36,3.09.09,6.6-3.9,6.47-5-.6-4.72-3.34-4.97-7.35-.2-1.23-.91-1.99-2.15-2.18-1.24-.21-2.34-.52-3.64-.52-2.13,0-2.31-4.91-.84-5.5,1.61-.65,3.2-.36,4.7-1.07,1.7-.73,1.53-3.19-.41-3.41-1.03-.18-1.92.09-2.98-.23-1.73-.44-2.59-1.1-2.59-3.54,0-3.59,4.32-2.57,6.33-3.66,1.88-1.2.77-3.8,1.07-5.61l.02-.14Z"/>
    <path class="cls-1" d="M304.65,31.93c.27,4.06.03,8.65.32,12.76.42,6.12-3.53,5.57-8.2,5.45-7.63,0-14.76.19-22.33.28-4.27.4-5.76-1.87-5.75-5.88-.12-5.15-.17-10.67-.32-15.86-.15-2,.25-4.52,2.69-4.62,3.05-.22,6.21.05,9.22.08,6.98-.33,13.99-.03,21-.21,2.03-.06,2.92,1.27,2.97,3.44.12,1.48.27,2.94.4,4.41v.14ZM285.51,41.52c1.9.01,3.91-.02,5.89-.09,1.99-.24,4.25.33,6.03-.66,1.2-.89.75-3.43.78-5.06.08-2.81-1.98-2.95-4.25-2.86-4.57.02-9.08,0-13.66.07-.81.03-1.78.13-2.35.68-1.02.92-.59,3.16-.53,4.75.05,1.3.41,2.72,1.78,3,2.01.35,4.2.1,6.16.18h.15Z"/>
    <path class="cls-1" d="M209.63,66.81c.18,9.31-11.49,15.3-18.9,9.59-7.43-5.06-7.42-16.58.67-21.02,8.11-5.12,18.7,2,18.23,11.27v.16ZM192.47,66.02c-.1,3.15,3.07,6.08,6.23,5.09,2.66-.78,4.39-3.8,3.54-6.41-1.64-5.27-9.5-4.43-9.77,1.17v.15Z"/>
    <path class="cls-1" d="M206.86,47.56c.11-6.17.05-12.4-.23-18.56,0-2.29-.89-5.11.77-7.01,1.68-1.65,5.97-2.1,7.38.19.89,1.55.17,4.13,1.02,5.49.93,1.49,3.08.49,4.88,1.11,1.2.38,2.32,1.39,2.49,2.66.24,3.02-3.7,3.44-5.85,3.97-1.45.4-2.12,2.16-.73,3.04,1.1.76,3.1.35,4.66.66,2.85.31,4.14,3.74,1.6,5.47-3.26,2.08-7.56-.97-7.17,5.12,0,2.67.38,6.65-2.86,7.23-6.31.62-6.03-4.48-5.97-9.23v-.15Z"/>
    <path class="cls-1" d="M114.83,25.05c0-1.19.05-2.46.71-3.49,1.27-1.94,5.09-2.25,7.12-.87,2.02,1.64,1.54,4.7,1.53,7.04-.25,4.76-.17,9.57-.28,14.39-.07,2.78.04,5.54.23,8.32.41,4.34-.98,6.66-5.65,5.8-4.07-.81-3.27-4.72-3.89-7.88-.29-.91-.97-1.39-1.95-1.53-1.3-.17-2.8-.08-3.94-.86-1.65-1-2.18-3.34-.76-4.63,1.4-1.4,3.73-1.07,5.41-1.76,1.61-.68,1.33-2.78-.34-3.22-.94-.29-2.19-.14-3.26-.35-3.01-.32-4.8-4.2-1.75-5.87,1.74-1.17,4.91-.4,6.1-1.7.78-.87.7-2.13.72-3.24v-.15Z"/>
    <path class="cls-1" d="M170.67,35.88c-.16-7.15,6.69-12.9,13.68-12.05,11.54,1.1,15.15,17.02,4.99,22.87-8.3,4.88-18.59-1.05-18.67-10.66v-.16ZM182.87,30.48c-6.83-.15-7.27,9.61-1.21,11.11,3.48.94,7.17-2.1,6.91-5.7-.14-2.8-2.69-5.48-5.54-5.41h-.16Z"/>
    <path class="cls-1" d="M281.04,64.49c0,.81,0,1.62-.02,2.43-.02,2.39-.47,5.15,2.04,5.56,6.35.28,12.75.22,19.1.28,6.37,0,12.75-.02,19.13,0,1.94-.08,5.04.64,4.56,3.13-.96,2.57-4.71,1.52-6.89,1.72-12.85-.02-25.67-.05-38.55-.05-1.62-.05-3.67.1-4.99-.82-1.51-1.27-1.36-3.67-1.52-5.5-.12-3.15-.12-6.23-.15-9.37,0-1.21.06-2.58.78-3.56,1.12-1.55,4.04-2,5.52-.64,1.45,1.45.88,4.51.99,6.64v.15Z"/>
    <path class="cls-1" d="M395.02,64.72c-6.08.03-12.18,0-18.3.02-.83-.01-1.74-.07-2.47-.41-1.78-.72-1.63-3.12,0-4.01,1.29-.77,2.95-.71,4.43-.73,13.57.14,27.19-.35,40.8-.35,3.65.07,4.48,2.28,4.56,5.55.07,3.9.05,7.77.13,11.66-.01,1.33.07,2.92-.71,4.02-1.37,1.85-5.35,1.51-5.93-.98-.75-3.81-.19-7.76-.33-11.65-.02-.99-.17-2.13-1.04-2.71-.64-.44-1.59-.52-2.41-.54-6.19.02-12.37.11-18.57.11h-.15Z"/>
  </g>
</svg>