<?xml version="1.0" encoding="UTF-8"?>
<svg id="_레이어_11" data-name="레이어_11" xmlns="http://www.w3.org/2000/svg" xmlns:xlink="http://www.w3.org/1999/xlink" viewBox="0 0 500 100">
  <defs>
    <style>
      .cls-1 {
        fill: url(#_무제_그라디언트_197-3);
      }

      .cls-2 {
        fill: url(#_무제_그라디언트_197-2);
      }

      .cls-3 {
        fill: url(#_무제_그라디언트_197-4);
      }

      .cls-4 {
        fill: url(#_무제_그라디언트_261-2);
      }

      .cls-5 {
        fill: url(#_무제_그라디언트_261-3);
      }

      .cls-6 {
        fill: url(#_무제_그라디언트_264-2);
      }

      .cls-7 {
        fill: #505c62;
      }

      .cls-8 {
        fill: url(#_무제_그라디언트_261);
      }

      .cls-9 {
        fill: url(#_무제_그라디언트_264);
      }

      .cls-10 {
        fill: url(#_무제_그라디언트_231);
      }

      .cls-11 {
        fill: url(#_무제_그라디언트_197);
      }

      .cls-12 {
        fill: url(#_무제_그라디언트_354);
      }
    </style>
    <filter id="drop-shadow-1" x="-1444" y="59.88" width="1670" height="753" filterUnits="userSpaceOnUse">
      <feOffset dx="3" dy="3"/>
      <feGaussianBlur result="blur" stdDeviation="3"/>
      <feFlood flood-color="#000" flood-opacity="1"/>
      <feComposite in2="blur" operator="in"/>
      <feComposite in="SourceGraphic"/>
    </filter>
    <filter id="drop-shadow-2" x="-15" y="-471.12" width="430" height="49" filterUnits="userSpaceOnUse">
      <feOffset dx="2" dy="2"/>
      <feGaussianBlur result="blur-2" stdDeviation="1"/>
      <feFlood flood-color="#000" flood-opacity="1"/>
      <feComposite in2="blur-2" operator="in"/>
      <feComposite in="SourceGraphic"/>
    </filter>
    <linearGradient id="_무제_그라디언트_354" data-name="무제 그라디언트 354" x1="54.61" y1="-53.29" x2="496.64" y2="180.39" gradientUnits="userSpaceOnUse">
      <stop offset="0" stop-color="#fff"/>
      <stop offset=".26" stop-color="#f5f5f5"/>
      <stop offset=".69" stop-color="#dddbdd"/>
      <stop offset="1" stop-color="#c9c5c8"/>
    </linearGradient>
    <linearGradient id="_무제_그라디언트_197" data-name="무제 그라디언트 197" x1="167.01" y1="62.71" x2="207.28" y2="62.71" gradientUnits="userSpaceOnUse">
      <stop offset=".01" stop-color="#d7bf99"/>
      <stop offset="1" stop-color="#d7bf99"/>
    </linearGradient>
    <linearGradient id="_무제_그라디언트_197-2" data-name="무제 그라디언트 197" x1="416.34" y1="63.31" x2="457.6" y2="63.31" xlink:href="#_무제_그라디언트_197"/>
    <linearGradient id="_무제_그라디언트_264" data-name="무제 그라디언트 264" x1="308.05" y1="25.64" x2="320" y2="65.23" gradientUnits="userSpaceOnUse">
      <stop offset=".01" stop-color="#e1cba6"/>
      <stop offset="1" stop-color="#d7bf99"/>
    </linearGradient>
    <linearGradient id="_무제_그라디언트_264-2" data-name="무제 그라디언트 264" x1="425.71" y1="25.72" x2="448.99" y2="68.03" xlink:href="#_무제_그라디언트_264"/>
    <linearGradient id="_무제_그라디언트_261" data-name="무제 그라디언트 261" x1="175.52" y1="22.16" x2="183.03" y2="51.78" gradientUnits="userSpaceOnUse">
      <stop offset=".01" stop-color="#e2d6b8"/>
      <stop offset="1" stop-color="#d7bf99"/>
    </linearGradient>
    <linearGradient id="_무제_그라디언트_261-2" data-name="무제 그라디언트 261" x1="204.59" y1="31.12" x2="206.33" y2="46.54" xlink:href="#_무제_그라디언트_261"/>
    <linearGradient id="_무제_그라디언트_197-3" data-name="무제 그라디언트 197" x1="40.76" y1="62.77" x2="81.81" y2="62.77" xlink:href="#_무제_그라디언트_197"/>
    <linearGradient id="_무제_그라디언트_197-4" data-name="무제 그라디언트 197" x1="291.29" y1="62.67" x2="332.96" y2="62.67" xlink:href="#_무제_그라디언트_197"/>
    <linearGradient id="_무제_그라디언트_231" data-name="무제 그라디언트 231" x1="47.02" y1="24.03" x2="55.9" y2="51.84" gradientUnits="userSpaceOnUse">
      <stop offset="0" stop-color="#e2ddc5"/>
      <stop offset="1" stop-color="#d7bf99"/>
    </linearGradient>
    <linearGradient id="_무제_그라디언트_261-3" data-name="무제 그라디언트 261" x1="74.85" y1="30.86" x2="74.92" y2="44.86" xlink:href="#_무제_그라디언트_261"/>
  </defs>
  <rect class="cls-12" width="500" height="100"/>
  <rect class="cls-7" y="9" width="500" height="82"/>
  <g>
    <path d="M208.25,60.97c-1.18-2.13-3.42-3.85-5.83-4.33-5.99-.41-12.05-.27-18.05-.36-2.48.02-4.94-.04-7.43.06-4.16.3-7.3,3.2-7.85,7.24-.76,4.94,3.58,9.58,8.57,9.36,8.2.04,16.39.44,24.58.06,5.15-.74,8.85-7.25,6.09-11.87l-.08-.15ZM177.54,62.92c1.12-1.15,2.92-1.15,4.43-1.16,5.52.22,11.03-.26,16.52.34,2.62.26,3.11,4.13.87,5.27-.7.37-1.65.4-2.44.37-5.43-.19-10.85-.39-16.29-.29-2.4.25-4.08-2.32-3.16-4.42l.07-.12Z"/>
    <path d="M453.71,58.88c-11.38.07-22.87-.19-34.22.5-1.13.34-1.26,1.69-1.11,2.57.06.96.85,1.86,1.66,2.39,1.49.5,6.86.01,7.79-.01,7.27-.2,14.71-.28,22.26-.2,2.3.02,1.77,2.29,1.94,5.61.06,1.22,1.22,1.89,2.26,1.98.41.03,2.11.02,2.52,0,1.33-.08,1.57-.26,2.25-1.09.44-.53.47-2.02.5-2.7.07-2.02.05-4.03-.08-6.06-.14-2.34-1.53-3.03-5.6-2.99h-.17Z"/>
    <path d="M331.13,30.89c-2.67-.63-5.36.07-5.29,3.86.02,1.2-1.16.97-3.27.94-3.7-.05-4.41.53-4.5-1.89-.07-1.82-1.97-2.34-3.4-2.38-5.67-.15-10.3-.02-16.07.31-3.27.19-3.63,1.69-4.01,2.33-.55.91-.98,3.23-.76,9.01.28,7.6.59,10.11,1.67,10.88,1,.72,2.15,1.1,3.37,1.14,5.08.01,10.14-.06,15.22-.05,1.28,0,2.71-.09,3.71-.98.56-.47.92-1.16,1.36-1.74.78-1.14,2.44-.81,3.85-.87.87.05,1.9-.13,2.64.39.76.62.38,2.16.55,3.23-.28,3.17,1.65,6.15,5.04,5.61,2.35-.31,3.97-2.3,3.72-4.71.07-5.95.09-11.92.13-17.87.13-3.1.11-6.66-3.78-7.19l-.18-.03ZM323.47,45.98c-.51,0-1.26-.01-1.82-.02-1.12.01-2.51.15-2.55-1.37-.28-3.62.09-3.29,3.38-3.24,1.01-.1,2.01-.06,3.04-.03.32.04.7.13.9.39.4.51.22,1.36.26,1.99.19,2.68-.86,2.27-3.07,2.29h-.13ZM302.12,47.93c.14-3.02-.29-6.15.02-9.22.12-1.05,1.27-1.07,2.11-1.07,1.9.01,3.75,0,5.66.06.4.04.82.15,1.07.46.28.34.31.9.3,1.36-.12,2.77-.03,5.43.05,8.25.12,1.66-.73,1.84-2.16,1.68-1.84-.14-3.62-.15-5.47-.11-.82.05-1.58-.32-1.57-1.23v-.17Z"/>
    <path d="M460.45,50.39c-4.85-.42-10.08-.2-14.97-.21-.59,0-.97.39-1.34-.1-.56-.8-.44-2.31.69-2.45,1.61-.12,7.33-.09,8.67-.44,3.68-.76,6.41-3.96,6.57-7.63.04-4.26-3.63-8.6-8.11-8.55-8.29-.23-16.62-.21-24.89-.19-3.22,0-6.51,2.36-7.78,5.18-1.74,3.38-.48,8.07,2.81,10.07,3.13,2.21,6.88,1.41,10.44,1.59.68.02,2.75-.11,2.88.51.41,2.01-1,2.69-2.52,2.52-4.79-.2-9.55-.37-14.34-.06-3.99.04-4.39,5.23-.56,6,10.65.23,21.38-.32,32-.07,3.1.01,6.22.05,9.31.03,1.54.04,3.33-.32,4.03-1.82,1.03-1.73-.91-4.06-2.74-4.34l-.16-.03ZM431.72,42.22c-1.51-.04-3.46-.15-4.29-1.65-.66-1.13-.28-2.97.79-3.6.6-.4,1.48-.49,2.22-.49,3.27-.04,6.53.09,9.78,0,2.67.01,5.35,0,8.05.07,1.53-.03,3.15.98,3.26,2.57.13,3.54-3.99,3-6.4,3-4.38-.01-8.85.09-13.24.1h-.17Z"/>
    <path d="M178.49,53.86c3.82-.14,7.79.5,11.53-.37,4.37-1.17,7.33-4.88,7.57-9.29.73-6.16-4.93-11.49-10.75-11.55-3.3-.13-6.61-.12-9.92-.05-5.56.17-10.86,5.85-9.65,11.48-.17,5.69,5.52,10.06,11.04,9.78h.17ZM175.89,42.11c.49-3.33,4.54-3.98,7.29-3.8,2.91.07,6.12,2.04,5.88,5.3-.04,2.53-2.12,4.55-4.57,4.66-1.06.04-2.11,0-3.17.01-3.27.22-6.14-2.73-5.46-5.99l.03-.17Z"/>
    <path d="M210.07,44.87c-1.04-.03-1.33-1.63-.5-2.16.77-.5,1.76-.24,2.67-.32,1.32.01,2.55-.73,3.01-1.97.36-.93.16-2.04-.46-2.81-1.16-1.53-3.31-1.1-4.98-1.24-.87-.19-.85-1.48-1.37-2.23-.13-.19-.29-.41-.44-.58-1.59-1.86-4.35-2.07-6.23-.54-2.23,1.34-1.56,4.31-1.54,6.51.12,3.8.03,7.6.23,11.41.05.9.25,1.79.64,2.53.89,1.71,7.25,1.78,7.45-.44.39-4.23,3.61-1.42,6.04-3.15,2.68-2.21-.27-6.09-3.31-5.22-.34.07-.74.19-1.06.21h-.15Z"/>
    <path d="M75.41,56.4c-4.58-.09-9.19-.11-13.78-.15-3.6-.01-7.23-.05-10.81-.03-1.52.03-3.02.55-4.32,1.39-6.81,4.33-3.61,14.39,3.96,15.47,6.35-.02,12.78.22,19.09.08,3.36.06,6.74.64,9.85-.98,7.68-3.66,4.61-15.76-3.82-15.78h-.18ZM64.96,67.63c-3.53.1-7.28.06-10.8-.08-2.19-.11-3.57-2.81-2.33-4.59,1.51-2.08,4.57-1.24,6.78-1.31,4.09-.19,8.18-.1,12.27-.08,1.55,0,3.69.48,4.33,2.02,1.03,3-1.72,4.26-4.3,3.97-1.93.03-3.92-.13-5.81.06l-.15.02Z"/>
    <path d="M334.5,67.8c-.5-.67-1.69-.91-2.57-.98-3.06-.11-6.12-.29-9.19-.31-6.51.25-13.04.08-19.53.19-.72.04-1.15-.47-1.17-1.15-.06-1.77.04-3.55-.3-5.27-.15-2.81-2.84-3.55-5.21-3.43-1.16.06-2.59.57-2.98,1.71-.13.38-.24,1.04-.25,1.47.01,2.31,0,4.68.09,7,.17,1.2.19,2.43.71,3.48,1.34,2.01,3.81,2.09,6.02,1.97,3.09-.34,26.22-.35,29.62-.06,1.43-.04,3.23.3,4.35-.74.83-1.03,1.23-2.58.52-3.75l-.09-.12Z"/>
    <path d="M66.36,54.19c3.56.14,4.19-4.92,1.65-6.23-.8-.41-2.03.1-2.62-.54-.23-.4-.19-.47-.2-.83-.04-2.12.05-5.46.05-7.82,0-.64,1.66.02,2.28-.52,1.24-.87,1.65-3.22.78-4.38-.62-.91-2-1.19-3.11-1.2-6.95-.07-13.83-.11-20.75-.14-2.74-.17-4.78,2.21-3.32,4.82.45,1.15,1.66.88,2.62.99,1.03.43.67,2.45.73,3.46-.09,2.02.48,4.22-.15,6.16-.43.54-1.06.24-1.78.35-2,.03-2.28,1.22-2.18,2.98-.12,3,3.57,2.66,5.66,2.79,6.65.09,13.44.15,20.14.12h.18ZM56.67,43.52c.02.69-.01,1.76,0,2.52-.02.59.07,1.39-.33,1.79-.32.31-.91.28-1.41.29-.44,0-.89,0-1.17-.26-.16-.15-.26-.39-.3-.66-.16-2.69-.25-5.31-.03-7.96.16-.79.96-.77,1.69-.77.5,0,1.01.07,1.26.39.64,1.28.11,3.12.29,4.52v.12Z"/>
    <path d="M83.71,46.58c-.03-2.41.11-6.39.12-8.83.02-1.38.23-3.01-.59-4.17-1.64-1.95-5.15-2.78-6.91-.75-.93.83-1.02,2.22-1.77,2.96-.66.39-1.63.42-2.41.41-2.23,0-2.49,1.7-2.17,3.32.15,1.11.8,2.05,2.12,2.17.73.08,1.62.03,2.3.3,1.16.39.93,2.06-.21,2.27-1.13.29-2.31.04-3.31.81-.99.73-.75,2.39-.63,3.32.14,1.02,1.27,1.75,2.4,1.76.95,0,2.12-.07,2.48,1,.49,1.71,1.86,3.06,3.73,3.11,1.43.12,2.42-.08,3.16-.64.68-.52,1.77-.7,1.7-7.04Z"/>
  </g>
  <g>
    <path class="cls-11" d="M206.25,58.97c-1.18-2.13-3.42-3.85-5.83-4.33-5.99-.41-12.05-.27-18.05-.36-2.48.02-4.94-.04-7.43.06-4.16.3-7.3,3.2-7.85,7.24-.76,4.94,3.58,9.58,8.57,9.36,8.2.04,16.39.44,24.58.06,5.15-.74,8.85-7.25,6.09-11.87l-.08-.15ZM175.54,60.92c1.12-1.15,2.92-1.15,4.43-1.16,5.52.22,11.03-.26,16.52.34,2.62.26,3.11,4.13.87,5.27-.7.37-1.65.4-2.44.37-5.43-.19-10.85-.39-16.29-.29-2.4.25-4.08-2.32-3.16-4.42l.07-.12Z"/>
    <path class="cls-2" d="M451.71,56.88c-11.38.07-22.87-.19-34.22.5-1.13.34-1.26,1.69-1.11,2.57.06.96.85,1.86,1.66,2.39,1.49.5,6.86.01,7.79-.01,7.27-.2,14.71-.28,22.26-.2,2.3.02,1.77,2.29,1.94,5.61.06,1.22,1.22,1.89,2.26,1.98.41.03,2.11.02,2.52,0,1.33-.08,1.57-.26,2.25-1.09.44-.53.47-2.02.5-2.7.07-2.02.05-4.03-.08-6.06-.14-2.34-1.53-3.03-5.6-2.99h-.17Z"/>
    <path class="cls-9" d="M329.13,28.89c-2.67-.63-5.36.07-5.29,3.86.02,1.2-1.16.97-3.27.94-3.7-.05-4.41.53-4.5-1.89-.07-1.82-1.97-2.34-3.4-2.38-5.67-.15-10.3-.02-16.07.31-3.27.19-3.63,1.69-4.01,2.33-.55.91-.98,3.23-.76,9.01.28,7.6.59,10.11,1.67,10.88,1,.72,2.15,1.1,3.37,1.14,5.08.01,10.14-.06,15.22-.05,1.28,0,2.71-.09,3.71-.98.56-.47.92-1.16,1.36-1.74.78-1.14,2.44-.81,3.85-.87.87.05,1.9-.13,2.64.39.76.62.38,2.16.55,3.23-.28,3.17,1.65,6.15,5.04,5.61,2.35-.31,3.97-2.3,3.72-4.71.07-5.95.09-11.92.13-17.87.13-3.1.11-6.66-3.78-7.19l-.18-.03ZM321.47,43.98c-.51,0-1.26-.01-1.82-.02-1.12.01-2.51.15-2.55-1.37-.28-3.62.09-3.29,3.38-3.24,1.01-.1,2.01-.06,3.04-.03.32.04.7.13.9.39.4.51.22,1.36.26,1.99.19,2.68-.86,2.27-3.07,2.29h-.13ZM300.12,45.93c.14-3.02-.29-6.15.02-9.22.12-1.05,1.27-1.07,2.11-1.07,1.9.01,3.75,0,5.66.06.4.04.82.15,1.07.46.28.34.31.9.3,1.36-.12,2.77-.03,5.43.05,8.25.12,1.66-.73,1.84-2.16,1.68-1.84-.14-3.62-.15-5.47-.11-.82.05-1.58-.32-1.57-1.23v-.17Z"/>
    <path class="cls-6" d="M458.45,48.39c-4.85-.42-10.08-.2-14.97-.21-.59,0-.97.39-1.34-.1-.56-.8-.44-2.31.69-2.45,1.61-.12,7.33-.09,8.67-.44,3.68-.76,6.41-3.96,6.57-7.63.04-4.26-3.63-8.6-8.11-8.55-8.29-.23-16.62-.21-24.89-.19-3.22,0-6.51,2.36-7.78,5.18-1.74,3.38-.48,8.07,2.81,10.07,3.13,2.21,6.88,1.41,10.44,1.59.68.02,2.75-.11,2.88.51.41,2.01-1,2.69-2.52,2.52-4.79-.2-9.55-.37-14.34-.06-3.99.04-4.39,5.23-.56,6,10.65.23,21.38-.32,32-.07,3.1.01,6.22.05,9.31.03,1.54.04,3.33-.32,4.03-1.82,1.03-1.73-.91-4.06-2.74-4.34l-.16-.03ZM429.72,40.22c-1.51-.04-3.46-.15-4.29-1.65-.66-1.13-.28-2.97.79-3.6.6-.4,1.48-.49,2.22-.49,3.27-.04,6.53.09,9.78,0,2.67.01,5.35,0,8.05.07,1.53-.03,3.15.98,3.26,2.57.13,3.54-3.99,3-6.4,3-4.38-.01-8.85.09-13.24.1h-.17Z"/>
    <path class="cls-8" d="M176.49,51.86c3.82-.14,7.79.5,11.53-.37,4.37-1.17,7.33-4.88,7.57-9.29.73-6.16-4.93-11.49-10.75-11.55-3.3-.13-6.61-.12-9.92-.05-5.56.17-10.86,5.85-9.65,11.48-.17,5.69,5.52,10.06,11.04,9.78h.17ZM173.89,40.11c.49-3.33,4.54-3.98,7.29-3.8,2.91.07,6.12,2.04,5.88,5.3-.04,2.53-2.12,4.55-4.57,4.66-1.06.04-2.11,0-3.17.01-3.27.22-6.14-2.73-5.46-5.99l.03-.17Z"/>
    <path class="cls-4" d="M208.07,42.87c-1.04-.03-1.33-1.63-.5-2.16.77-.5,1.76-.24,2.67-.32,1.32.01,2.55-.73,3.01-1.97.36-.93.16-2.04-.46-2.81-1.16-1.53-3.31-1.1-4.98-1.24-.87-.19-.85-1.48-1.37-2.23-.13-.19-.29-.41-.44-.58-1.59-1.86-4.35-2.07-6.23-.54-2.23,1.34-1.56,4.31-1.54,6.51.12,3.8.03,7.6.23,11.41.05.9.25,1.79.64,2.53.89,1.71,7.25,1.78,7.45-.44.39-4.23,3.61-1.42,6.04-3.15,2.68-2.21-.27-6.09-3.31-5.22-.34.07-.74.19-1.06.21h-.15Z"/>
    <path class="cls-1" d="M73.41,54.4c-4.58-.09-9.19-.11-13.78-.15-3.6-.01-7.23-.05-10.81-.03-1.52.03-3.02.55-4.32,1.39-6.81,4.33-3.61,14.39,3.96,15.47,6.35-.02,12.78.22,19.09.08,3.36.06,6.74.64,9.85-.98,7.68-3.66,4.61-15.76-3.82-15.78h-.18ZM62.96,65.63c-3.53.1-7.28.06-10.8-.08-2.19-.11-3.57-2.81-2.33-4.59,1.51-2.08,4.57-1.24,6.78-1.31,4.09-.19,8.18-.1,12.27-.08,1.55,0,3.69.48,4.33,2.02,1.03,3-1.72,4.26-4.3,3.97-1.93.03-3.92-.13-5.81.06l-.15.02Z"/>
    <path class="cls-3" d="M332.5,65.8c-.5-.67-1.69-.91-2.57-.98-3.06-.11-6.12-.29-9.19-.31-6.51.25-13.04.08-19.53.19-.72.04-1.15-.47-1.17-1.15-.06-1.77.04-3.55-.3-5.27-.15-2.81-2.84-3.55-5.21-3.43-1.16.06-2.59.57-2.98,1.71-.13.38-.24,1.04-.25,1.47.01,2.31,0,4.68.09,7,.17,1.2.19,2.43.71,3.48,1.34,2.01,3.81,2.09,6.02,1.97,3.09-.34,26.22-.35,29.62-.06,1.43-.04,3.23.3,4.35-.74.83-1.03,1.23-2.58.52-3.75l-.09-.12Z"/>
    <path class="cls-10" d="M64.36,52.19c3.56.14,4.19-4.92,1.65-6.23-.8-.41-2.03.1-2.62-.54-.23-.4-.19-.47-.2-.83-.04-2.12.05-5.46.05-7.82,0-.64,1.66.02,2.28-.52,1.24-.87,1.65-3.22.78-4.38-.62-.91-2-1.19-3.11-1.2-6.95-.07-13.83-.11-20.75-.14-2.74-.17-4.78,2.21-3.32,4.82.45,1.15,1.66.88,2.62.99,1.03.43.67,2.45.73,3.46-.09,2.02.48,4.22-.15,6.16-.43.54-1.06.24-1.78.35-2,.03-2.28,1.22-2.18,2.98-.12,3,3.57,2.66,5.66,2.79,6.65.09,13.44.15,20.14.12h.18ZM54.67,41.52c.02.69-.01,1.76,0,2.52-.02.59.07,1.39-.33,1.79-.32.31-.91.28-1.41.29-.44,0-.89,0-1.17-.26-.16-.15-.26-.39-.3-.66-.16-2.69-.25-5.31-.03-7.96.16-.79.96-.77,1.69-.77.5,0,1.01.07,1.26.39.64,1.28.11,3.12.29,4.52v.12Z"/>
    <path class="cls-5" d="M81.71,44.58c-.03-2.41.11-6.39.12-8.83.02-1.38.23-3.01-.59-4.17-1.64-1.95-5.15-2.78-6.91-.75-.93.83-1.02,2.22-1.77,2.96-.66.39-1.63.42-2.41.41-2.23,0-2.49,1.7-2.17,3.32.15,1.11.8,2.05,2.12,2.17.73.08,1.62.03,2.3.3,1.16.39.93,2.06-.21,2.27-1.13.29-2.31.04-3.31.81-.99.73-.75,2.39-.63,3.32.14,1.02,1.27,1.75,2.4,1.76.95,0,2.12-.07,2.48,1,.49,1.71,1.86,3.06,3.73,3.11,1.43.12,2.42-.08,3.16-.64.68-.52,1.77-.7,1.7-7.04Z"/>
  </g>
</svg>