<?xml version="1.0" encoding="UTF-8"?>
<svg xmlns="http://www.w3.org/2000/svg" xmlns:xlink="http://www.w3.org/1999/xlink" viewBox="0 0 500 100">
  <defs>
    <style>
      .cls-1 {
        fill: url(#_무제_그라디언트_182-3);
      }

      .cls-2 {
        fill: url(#_무제_그라디언트_182-4);
      }

      .cls-3 {
        fill: url(#_무제_그라디언트_182-2);
      }

      .cls-4 {
        fill: #505a66;
      }

      .cls-5 {
        fill: url(#_무제_그라디언트_182);
      }

      .cls-6 {
        fill: #2b323a;
      }

      .cls-7 {
        fill: none;
        stroke: #5d6c7a;
        stroke-linecap: round;
        stroke-miterlimit: 10;
        stroke-width: 2px;
      }
    </style>
    <linearGradient id="_무제_그라디언트_182" data-name="무제 그라디언트 182" x1="73.55" y1="23.05" x2="99.68" y2="95.35" gradientUnits="userSpaceOnUse">
      <stop offset="0" stop-color="#ffb97d"/>
      <stop offset="1" stop-color="#b76e38"/>
    </linearGradient>
    <linearGradient id="_무제_그라디언트_182-2" data-name="무제 그라디언트 182" x1="405.45" y1="50.09" x2="431.04" y2="81.79" xlink:href="#_무제_그라디언트_182"/>
    <linearGradient id="_무제_그라디언트_182-3" data-name="무제 그라디언트 182" x1="379.36" y1="3.13" x2="407.64" y2="71.94" xlink:href="#_무제_그라디언트_182"/>
    <linearGradient id="_무제_그라디언트_182-4" data-name="무제 그라디언트 182" x1="216.41" y1="20.79" x2="262.04" y2="83.42" xlink:href="#_무제_그라디언트_182"/>
    <filter id="drop-shadow-1" x="-1444" y="332.7" width="1670" height="753" filterUnits="userSpaceOnUse">
      <feOffset dx="3" dy="3"/>
      <feGaussianBlur result="blur" stdDeviation="3"/>
      <feFlood flood-color="#000" flood-opacity="1"/>
      <feComposite in2="blur" operator="in"/>
      <feComposite in="SourceGraphic"/>
    </filter>
    <filter id="drop-shadow-2" x="-15" y="-198.3" width="430" height="49" filterUnits="userSpaceOnUse">
      <feOffset dx="2" dy="2"/>
      <feGaussianBlur result="blur-2" stdDeviation="1"/>
      <feFlood flood-color="#000" flood-opacity="1"/>
      <feComposite in2="blur-2" operator="in"/>
      <feComposite in="SourceGraphic"/>
    </filter>
  </defs>
  <g id="_레이어_4" data-name="레이어_4">
    <rect class="cls-4" width="500" height="100"/>
  </g>
  <g id="_레이어_9" data-name="레이어_9">
    <path class="cls-6" d="M50.04,58.86c-1.96-1.57-2.53-4.73-1.18-6.89.83-1.46,2.66-2.07,3.86-.58.66.73,1.18,1.63,1.85,2.37,2.9,3.02,9.61,2.08,13.43,1.27,9.75-2.74-5.92-7.72-1-12.27,2.22-1.67,5.6-.93,7.43.85,2.6,2.54,5.08,4.2,5.67,4.19.79-.02,1.77-.54,3.6-1.88,2.71-1.97,6.64-6.07,5.94-9.76-.52-1.44-2.36-1.84-3.77-2.04-4.39-.55-8.77.06-12.86,1.96-1.69.74-3.36,1.69-5.11,2.27-1.9.78-4.77.16-4.77-2.14.5-6.06,15.24-5.7,19.93-6.83,3.56-.49,7.19,0,10.75-.15,1.28,0,2.62-.08,3.86.18,4.54.95,3.21,6.08,1.36,8.93-1.2,2.25-2.42,4.83-4.13,7.37-1.26,1.76-2.54,3.26-4.05,4.56-1.17.97-2.68,2.43-1.58,3.96,2.94,3.36,7.69,4.93,11.71,6.58,5.44,2.27,11.29,2.55,17.14,1.39,2.1-.34,6.16-2.25,6.86.77.12,4.17-4.34,6.52-8.03,6.88-14.16,1.14-21.46-1.96-33.1-9.41-5.02-3.19-9.45.2-14.78,1.34-5.09,1.01-10.32-.1-15.32-1.19-1.28-.32-2.57-.8-3.59-1.63l-.14-.12Z"/>
    <path class="cls-6" d="M430.28,45.31c1.12.12,2.3.7,2.37,1.91.08,1.35-1.44,2.79-2.09,4.24-.7,1.5-.55,3.26-1.25,4.76-.53,1.17-1.63,2.1-2.75,2.76-1.39,1.25-7.76,2.2-6.98,4.46,2.47,2.86,13.32-2.06,13.92,1.94-1.24,3.16-8.13,2.41-11.24,2.87-1.63.13-3.59.43-4.56,1.85-1.25,1.74.36,3.76,2.29,3.83,2.72.26,5.46-.52,8.18-1.19,2.14-.59,4.48-.91,5.98.12,3.51,2.64,1.63,6.63-2.68,6.42-6.36-.01-12.7-.12-19.13-.16-3.84-.13-7.48-.63-11.28,0-2.86.56-8.15.18-4.68-3.64,2.56-2.43,6.37-1.11,9.61-1.66,2.17-.37,6.15-.58,6.88-2.56.46-1.37-.68-2.62-1.91-3.12-2.83-1.33-6.29-.12-9.48-.14-3.11-.12-3.21-2.82-.64-4.04,2.8-1.39,6.81-.04,10-.45,1.93-.38.04-1.55-.9-1.82-2.81-.9-6.89-1.41-8.03-4.65-.64-1.66.17-3.46.77-4.98.26-.84.47-1.38-.05-1.86-1.11-.75-3.61-.26-4.78-1.4-1.52-1.37.22-2.99,1.85-3.26,9.65-1.32,20.48.15,30.42-.24l.16.02ZM417.24,56.75c1.97.22,5.27-.3,3.52-2.98-2.39-3.48-7.16-3.83-10.13-.67-.37.41-.8.99-.67,1.51,1.18,1.9,5.01,1.96,7.1,2.14h.19Z"/>
    <path class="cls-6" d="M386.47,30.2c1.44-.81,3.22-.96,4.87-1.12,4.38-.26,8.8-1.05,13.19-.62,7.59,1.13,14.16,2.53,21.37-.9,2.03-.75,5.05-.8,6.23,1.11.94,1.34.54,3.39-.21,4.85-1.63,2.81-3.32,6.82-6.96,7.22-8.32-.57-16.57,2.05-24.92.73-6.63-.91-7.42,2.54-8.19,8.18-.61,3.22-1.57,6.26-2.97,9.31-1.79,3.44-3.64,7.08-6.55,9.69-5.78,4.91-14.5,3.36-19.34-2.05-2-1.93-1.42-5.5,1.7-5.03,1.86.3,3.16,2.03,4.73,2.93,1.31.79,2.9.98,4.4.61,7.69-2.26,9.38-11.85,9.89-18.87.07-2.41-.46-4.93.8-6.56,3.39-3.74,10.84-2.12,15.47-2.37,4.28-.38,17.91,1.49,19.78-2.61-.09-.78-1.65-.77-2.46-.77-1.84.09-3.83.1-5.71-.13-6.78-.81-13.59-1.32-20.28.34-1.86.39-4.47,1.29-5.98-.09-1.08-.99-.42-3,1-3.77l.14-.09Z"/>
    <path class="cls-6" d="M281.28,70.14l-.09-.12c-1.57-1.75-4.6-1.5-6.84-1.69-6.48-.17-12.4-3.08-17.17-7.33-4.52-3.01-11.65-8.82-15.46-11.92-1.29-1.05-1.25-7.24-1.31-9.3-.13-4.56,3.52-7.84,7.17-7.46,3.55.69,1.85,3.39.25,4.96-1.26,1.23-2.9,1.9-5.15,4.12-1.16,1.15-.91,4.4,1.19,5.15,2.1.75,4.67-1.36,6.53-2.38,2.14-1.17,3.91-.04,8.94,2.46,2.8,1.61,7.37,3.27,8.66-.84,1.96-8.85-22.58,1.18-6.85-13.53,1.67-1.34,3.9-2.21,4.19-4.29.3-3.48-4.17-2.53-6.4-2.28-5.05.14-10.09,1.43-15.11,1.74-2.68-.17-1.82-3.12-2.17-4.93-.29-2.61-4.01-3.49-5.55-1.41-.63.8-.91,1.85-1.28,2.78-.82,2.97-3.87,3.01-6.5,2.92-4.67.52-9.76-1.42-14.16-.24-2.49.77-5.36,2.91-4.84,5.81,1.26,5.04,7.43,3.58,11.03,2.21,1.58-.41,2.5-.35,2.21.44-2.47,3.65-6.86,6.79-10.42,9.19-.99.64-2.19,1.38-2.61,2.47-.61,1.87,1.56,3,3.34,2.59,2.09-.38,3.83-2.19,5.72-3.08.38-.17.76-.3,1.15-.37,3.47-.82,7.1,3.88,10.89,3.94,1.88-.01,2.95-1.94,1.85-3.62-.84-1.4-2.6-2.4-4-3.31-2.78-1.57-3.4-3.22-.3-5.3,1.81-1.3,4.62-4.06,5.97-2.36,1.46,2.38.49,6.29.95,9.19,1.14,7.13-3.96,13.06-9.74,16.48-3.64,2.42-7.43,3.69-11.54,3.93-2.54.09-5.06-1.51-7.5-.4-2.31.95-2.88,4.41-.53,5.62,2.55,1.12,5.27-.36,7.97-.78,4.02-.67,8.06-1.51,11.78-3.16,3.26-1.12,5.43-3.35,8.28-4.74,2.63-.43,1.49,4.77,1.49,6.31-.31,2.76-.24,5.5-.34,8.26.14,3.44-2.62,13.24,2.76,13.34,3.94-1.02,2.28-6.19,2.22-9.21-.08-6.7-.56-13.83,1.36-20.27.74-1.78,2.73-.67,3.89.34,3.88,3.16,8,6.36,12.22,9.13,6.24,3.72,13.75,6.31,21.05,5.57,2.14-.37,4.3-2.72,2.83-4.67Z"/>
    <line class="cls-7" x1="159.37" y1="10.24" x2="159.37" y2="89.25"/>
    <line class="cls-7" x1="321.79" y1="10.24" x2="321.79" y2="89.25"/>
    <path class="cls-5" d="M49.04,55.86c-1.96-1.57-2.53-4.73-1.18-6.89.83-1.46,2.66-2.07,3.86-.58.66.73,1.18,1.63,1.85,2.37,2.9,3.02,9.61,2.08,13.43,1.27,9.75-2.74-5.92-7.72-1-12.27,2.22-1.67,5.6-.93,7.43.85,2.6,2.54,5.08,4.2,5.67,4.19.79-.02,1.77-.54,3.6-1.88,2.71-1.97,6.64-6.07,5.94-9.76-.52-1.44-2.36-1.84-3.77-2.04-4.39-.55-8.77.06-12.86,1.96-1.69.74-3.36,1.69-5.11,2.27-1.9.78-4.77.16-4.77-2.14.5-6.06,15.24-5.7,19.93-6.83,3.56-.49,7.19,0,10.75-.15,1.28,0,2.62-.08,3.86.18,4.54.95,3.21,6.08,1.36,8.93-1.2,2.25-2.42,4.83-4.13,7.37-1.26,1.76-2.54,3.26-4.05,4.56-1.17.97-2.68,2.43-1.58,3.96,2.94,3.36,7.69,4.93,11.71,6.58,5.44,2.27,11.29,2.55,17.14,1.39,2.1-.34,6.16-2.25,6.86.77.12,4.17-4.34,6.52-8.03,6.88-14.16,1.14-21.46-1.96-33.1-9.41-5.02-3.19-9.45.2-14.78,1.34-5.09,1.01-10.32-.1-15.32-1.19-1.28-.32-2.57-.8-3.59-1.63l-.14-.12Z"/>
    <path class="cls-3" d="M429.28,42.31c1.12.12,2.3.7,2.37,1.91.08,1.35-1.44,2.79-2.09,4.24-.7,1.5-.55,3.26-1.25,4.76-.53,1.17-1.63,2.1-2.75,2.76-1.39,1.25-7.76,2.2-6.98,4.46,2.47,2.86,13.32-2.06,13.92,1.94-1.24,3.16-8.13,2.41-11.24,2.87-1.63.13-3.59.43-4.56,1.85-1.25,1.74.36,3.76,2.29,3.83,2.72.26,5.46-.52,8.18-1.19,2.14-.59,4.48-.91,5.98.12,3.51,2.64,1.63,6.63-2.68,6.42-6.36-.01-12.7-.12-19.13-.16-3.84-.13-7.48-.63-11.28,0-2.86.56-8.15.18-4.68-3.64,2.56-2.43,6.37-1.11,9.61-1.66,2.17-.37,6.15-.58,6.88-2.56.46-1.37-.68-2.62-1.91-3.12-2.83-1.33-6.29-.12-9.48-.14-3.11-.12-3.21-2.82-.64-4.04,2.8-1.39,6.81-.04,10-.45,1.93-.38.04-1.55-.9-1.82-2.81-.9-6.89-1.41-8.03-4.65-.64-1.66.17-3.46.77-4.98.26-.84.47-1.38-.05-1.86-1.11-.75-3.61-.26-4.78-1.4-1.52-1.37.22-2.99,1.85-3.26,9.65-1.32,20.48.15,30.42-.24l.16.02ZM416.24,53.75c1.97.22,5.27-.3,3.52-2.98-2.39-3.48-7.16-3.83-10.13-.67-.37.41-.8.99-.67,1.51,1.18,1.9,5.01,1.96,7.1,2.14h.19Z"/>
    <path class="cls-1" d="M385.47,27.2c1.44-.81,3.22-.96,4.87-1.12,4.38-.26,8.8-1.05,13.19-.62,7.59,1.13,14.16,2.53,21.37-.9,2.03-.75,5.05-.8,6.23,1.11.94,1.34.54,3.39-.21,4.85-1.63,2.81-3.32,6.82-6.96,7.22-8.32-.57-16.57,2.05-24.92.73-6.63-.91-7.42,2.54-8.19,8.18-.61,3.22-1.57,6.26-2.97,9.31-1.79,3.44-3.64,7.08-6.55,9.69-5.78,4.91-14.5,3.36-19.34-2.05-2-1.93-1.42-5.5,1.7-5.03,1.86.3,3.16,2.03,4.73,2.93,1.31.79,2.9.98,4.4.61,7.69-2.26,9.38-11.85,9.89-18.87.07-2.41-.46-4.93.8-6.56,3.39-3.74,10.84-2.12,15.47-2.37,4.28-.38,17.91,1.49,19.78-2.61-.09-.78-1.65-.77-2.46-.77-1.84.09-3.83.1-5.71-.13-6.78-.81-13.59-1.32-20.28.34-1.86.39-4.47,1.29-5.98-.09-1.08-.99-.42-3,1-3.77l.14-.09Z"/>
    <path class="cls-2" d="M280.28,67.14l-.09-.12c-1.57-1.75-4.6-1.5-6.84-1.69-6.48-.17-12.4-3.08-17.17-7.33-4.52-3.01-11.65-8.82-15.46-11.92-1.29-1.05-1.25-7.24-1.31-9.3-.13-4.56,3.52-7.84,7.17-7.46,3.55.69,1.85,3.39.25,4.96-1.26,1.23-2.9,1.9-5.15,4.12-1.16,1.15-.91,4.4,1.19,5.15,2.1.75,4.67-1.36,6.53-2.38,2.14-1.17,3.91-.04,8.94,2.46,2.8,1.61,7.37,3.27,8.66-.84,1.96-8.85-22.58,1.18-6.85-13.53,1.67-1.34,3.9-2.21,4.19-4.29.3-3.48-4.17-2.53-6.4-2.28-5.05.14-10.09,1.43-15.11,1.74-2.68-.17-1.82-3.12-2.17-4.93-.29-2.61-4.01-3.49-5.55-1.41-.63.8-.91,1.85-1.28,2.78-.82,2.97-3.87,3.01-6.5,2.92-4.67.52-9.76-1.42-14.16-.24-2.49.77-5.36,2.91-4.84,5.81,1.26,5.04,7.43,3.58,11.03,2.21,1.58-.41,2.5-.35,2.21.44-2.47,3.65-6.86,6.79-10.42,9.19-.99.64-2.19,1.38-2.61,2.47-.61,1.87,1.56,3,3.34,2.59,2.09-.38,3.83-2.19,5.72-3.08.38-.17.76-.3,1.15-.37,3.47-.82,7.1,3.88,10.89,3.94,1.88-.01,2.95-1.94,1.85-3.62-.84-1.4-2.6-2.4-4-3.31-2.78-1.57-3.4-3.22-.3-5.3,1.81-1.3,4.62-4.06,5.97-2.36,1.46,2.38.49,6.29.95,9.19,1.14,7.13-3.96,13.06-9.74,16.48-3.64,2.42-7.43,3.69-11.54,3.93-2.54.09-5.06-1.51-7.5-.4-2.31.95-2.88,4.41-.53,5.62,2.55,1.12,5.27-.36,7.97-.78,4.02-.67,8.06-1.51,11.78-3.16,3.26-1.12,5.43-3.35,8.28-4.74,2.63-.43,1.49,4.77,1.49,6.31-.31,2.76-.24,5.5-.34,8.26.14,3.44-2.62,13.24,2.76,13.34,3.94-1.02,2.28-6.19,2.22-9.21-.08-6.7-.56-13.83,1.36-20.27.74-1.78,2.73-.67,3.89.34,3.88,3.16,8,6.36,12.22,9.13,6.24,3.72,13.75,6.31,21.05,5.57,2.14-.37,4.3-2.72,2.83-4.67Z"/>
  </g>
</svg>