<?xml version="1.0" encoding="UTF-8"?>
<svg xmlns="http://www.w3.org/2000/svg" version="1.1" viewBox="0 0 500 204.6">
  <defs>
    <style>
      .cls-1 {
        fill: #b5b5b5;
      }

      .cls-2 {
        fill: #ffc69f;
      }

      .cls-3 {
        fill: #5e666b;
      }

      .cls-4 {
        fill: #7b8387;
      }

      .cls-5 {
        fill: #ce8c5f;
      }

      .cls-6 {
        fill: #4c565e;
      }

      .cls-7 {
        fill: #4d5254;
      }
    </style>
  </defs>
  <!-- Generator: Adobe Illustrator 28.6.0, SVG Export Plug-In . SVG Version: 1.2.0 Build 709)  -->
  <g>
    <g id="_레이어_4" data-name="레이어_4">
      <rect class="cls-3" width="500" height="204.6"/>
      <rect class="cls-4" x=".5" y="17.1" width="499.5" height="22.8"/>
      <rect class="cls-6" y="163.3" width="499.1" height="22.8"/>
      <rect class="cls-7" x="-.4" y="37.1" width="499.5" height="5.7"/>
      <rect class="cls-1" x="158.8" y="42.8" width="4.1" height="120.6"/>
      <rect class="cls-1" x="319.7" y="42.8" width="4.1" height="120.6"/>
    </g>
    <g id="_레이어_2" data-name="레이어_2">
      <path class="cls-5" d="M51.1,109.7c-2.4-2.2-2.7-5.8-.8-8.5.7-1.1,1.9-1.1,3-1.3.2,0,.5.2.7.3.3.8.6,1.6.5,2.5-.4.6,0,.7.4.8.2.7.8,1,1.3,1.4,0,.5.2.9.8.4.3,0,.6.2.9.2.6,1.3,1.5,1.3,2.5.7.7,0,1.4,0,2.2-.1.4,0,.9,0,1.3,0,.4,0,.9.1,1.3.2,1.2.7,2.1,0,2.9-.6.2,0,.5-.1.7-.2h0c.2,0,.4,0,.6-.1.5.6.7.2.8-.3.4,0,.8-.1,1.3-.2.8-.1,1.7-.4,2-1.1.4-.8-.7-1-1.1-1.6-1.4-2.3-3.9-3.4-5.5-5.4-.6-1-.9-2-.4-3.2,2.2-1.5,4.6-2.2,7.2-.9,1,.8,2.1,1.5,3.1,2.3,1.2,1.4,2.3,2.9,4.1,3.7.4.6.8.6,1.2,0,1.8-1.2,3.4-2.6,4.6-4.3,2-1.2,2.8-3.2,3.8-5.1,1.6-2.4,1.2-3.8-1.1-4.2-5.6-1-10.9-.8-16.1,2-2.5,1.3-5,3-8.1,3,0-.5-.3-.9-.7-1.2-1.6-1.7-1.3-3.2.6-4.6,3.4-2.4,7.4-2.3,11.2-3.1,2.3-.5,4.7.2,6.8-1.2,2.4,0,4.9,0,7.3,0,2.6.8,5.1,0,7.6,0,1.2,0,2.3.6,3.3,1,0,.2.1.5.2.7,0,1.2-.3,2.3.2,3.4,0,.2,0,.3,0,.5-.1.2-.3.3-.4.5-.9.2-.9.8-.6,1.5,0,.2-.1.5-.2.7-1.3.4-1.8,1.3-1.6,2.7,0,.1,0,.2-.2.3-.6,0-.8.4-.6,1-1.4,2.3-2.8,4.6-4.3,6.9-.5.3-1,.7-1.6,1-.4,0-.9,0-.6.7-.5,1.3-1.9,1.5-2.9,2.3-.9.3-1.2.7-.2,1.2.6,1.2,2.1,1.1,2.8,2,0,.6.4.8,1,.7.1,0,.2,0,.3.1,0,1.4,1.1,1.3,2.1,1.3,2.2,1.5,4.7,2.4,7.2,3.1.2.4.5.7,1,.5.5.1,1,.3,1.6.4.6.7,1.2,1.3,2.2.7.7,0,1.4,0,2.2.1.3.3.6.3.9,0,.7,0,1.4,0,2,0,.8.4,1.7.2,2.5.2,2.7,0,5.1-1.2,7.6-1.8,3.3-.7,3.5-.6,3.7,2.7-1.7,4.4-5.1,5.9-9.6,6.2-3.4.2-6.8-.5-10.1-.1-.3,0-.6,0-.9,0-1.9-.8-4-1.2-6-1.6-.4,0-.7-.2-1.1-.3-5.2-2.2-10-5.3-14.7-8.4-1.1-.7-2.5-1.1-3.9-.7h-.8c-.4-.2-.8-.1-1.2.1-2.8,1.6-5.9,2.6-9,3.2-.7,0-1.4,0-2.2,0-.4-.2-.9-.2-1.3,0-1,0-2-.1-3-.2-3.6-1.2-7.6-.9-11.1-2.8Z"/>
      <path class="cls-5" d="M282.2,121.6c1,1.7.5,3.2-.8,4.5-1.5,1.1-3.3,1-5.1,1.1-1.9,0-3.7-1-5.6-.8-.3,0-.6,0-.9-.1-.9-.7-1.9-.8-3-.7-.3,0-.6-.1-.9-.2-3.5-1.8-7.3-3.1-10.4-5.7-3.7-2.9-7.6-5.4-11.1-8.7-.6-.6-1.4-2-2.5-.4-.5,1.6-.4,3.2-.3,4.8,0,.2-.1.4-.2.7-.5.4-.7.8-.5,1.4-.4,5.6-.3,11.1,0,16.7-.2.6,0,1,.5,1.4.3,1.2.2,2.4.1,3.6-.7.3-.9,1-1.1,1.6-1.4,1.7-2.8.2-4.2,0-.7-1.2-1-2.4-.9-3.8,0-1.1.6-2.2.2-3.3,0-1.3.1-2.6.2-3.8.7-2.2.6-4.5,0-6.8.2-1.9,1.1-3.6.6-5.6.3-1.4.2-2.9.1-4.3,0-.4,0-.9-.5-.9-.6,0-1,.4-1.2,1h0c-.7.1-1.2.5-1.4,1.1-.1,0-.2,0-.3.2-.5,0-.8.3-1,.7-.2.2-.5.4-.7.5-.5,0-.8.3-1,.7-.4.2-.7.4-1.1.6-3.5,1.3-6.9,3-10.7,3.5-2.9.4-5.8.8-8.5,1.9-1.5.6-2.9.3-4.3-.5-.2-.5-.4-1-.6-1.5,0-.9,0-1.7,0-2.6.5-.3.8-.7.8-1.3.3-.2.6-.3.9-.5,1.4.3,2.4-1.1,3.8-.9h0c.6,1.2,1.4,2.1,2.9,1.8.8,0,1.6.2,2.2-.4.4,0,.8-.2,1.3-.3.9.3,1.6.1,2.1-.6.4,0,.8.2,1.3.3.9,0,1.6-.4,2.1-1.1,2.4-1.2,4.9-2.3,6.9-4.2,1.2-.5,2-1.4,2.6-2.6,1-1.2,2.3-2.3,2.8-3.9,1-.5.8-1.5.9-2.4.8-1.1.6-2.3.1-3.5,0-1.3-.1-2.6-.2-3.9,0-1.1,0-2.3,0-3.4,0-1.1,0-2.3,0-3.4.1-.8-.2-1.2-1-1-.3,0-.6,0-.9,0-1.1-.2-1.5.5-1.5,1.5,0,0-.1,0-.1.2-2.2,1.1-4.1,2.6-6,4.1-.6.5-.7,1.1.4,1.2,1.3.4,2,1.8,3.4,2,1.1.8,2.2,1.5,3.3,2.3,1.3.9,2.1,2,.9,3.6-1,1.4-2.3,1.9-3.9,1-1.8-1.1-3.6-2.3-5.4-3.4-3.4-2.1-4.5-1.9-7.4,1-.7,0-1.1.5-1.3,1.1-1.4,1-3,1.1-4.6.9-1.5-.7-2.1-1.8-1.8-3.4.5-.1.9-.5,1-1,1.7-.5,3.4-.9,4.6-2.3,2.7-2.4,5.9-4.2,7.9-7.3,1-.2,1.7-.6,1.8-1.8-.9,0-1.7.3-2.5.5-3.4,1-6.6,3.4-10.5,1.5-.2-.2-.5-.3-.7-.5-.4-.6-.7-1.2-1.1-1.8-.9-1.7-.7-3.1.8-4.4,3-2.6,6.3-3.6,10.2-2.2,1.6.6,3.4.3,5.1.3,2.3,0,4.7,0,7,0,1.7,0,2.4-.3,2.2-2.3-.5-3.8,1.9-5.8,5.3-4.7,1.6.6,2.2,1.5,1.9,3.2-.2,1.6-1.9,3.3-.5,4.6,1.2,1.1,2.9-.3,4.4-.5,4.5-.5,9-1.5,13.5-1.4.8,0,1.7-.2,2.5-.4,1.2-.4,2.3-1,3.1.5.7,1.3.6,2.6-.5,3.7-.2.2-.3.6-.5.9-.3.2-.5.4-.8.6-.3,0-.6.1-.9.2-1.1-.3-2,.3-2.5,1.1-1.4,2.3-3.1,4.4-5.2,6.1-.8.7-.6,1.3.2,1.7.6.3,1.1.9,1.9.8.3,0,.6.1.9.2,1.9,0,3.9.2,5.8.2,4.3,0,5.5,1.8,3.8,5.8-.5.1-.7.5-.7,1-1.3,0-2.4.8-3.8.4-2.9-1.9-6.2-3.2-9.4-4.6,0,0-.2-.1-.3-.1-.2-.4-.5-.6-1-.5-2.4-1-3.5,1.3-5.2,2.1-.8,0-1.5,0-2,.7-.3,0-.7,0-1,0-.4-.3-.8-.6-1.2-.9-1.7-1.3-2.1-.6-1.9,1.2-.4,1.8.9,2.7,2,3.4,2.5,1.7,4.6,3.9,7.1,5.7,2.2,2,4.8,3.5,7.3,5.1,0,.5.4.7.8.7.1,0,.2.2.4.2,3.1,3.8,7.5,4.8,11.9,5.9,3.5.9,7.4-.6,10.8,1.4ZM248.2,88.8c.4-.4.8-.7,1.2-1.1.9-.8,2-1.8.3-2.5-3.2-1.4-8,1.8-8.3,5.4,0,.8-.4,1.8.5,2.3.8.4,1.2-.5,1.8-.9.7-.4,1.4-1,2.1-1.5.2,0,.5-.2.7-.2.9-.2,1.4-.8,1.8-1.5Z"/>
      <path class="cls-5" d="M430.5,97.7c.6,0,1.1,0,1.7,0,.3.4.8.4,1.2.5,0,1.5.7,3.2-.8,4.4-.7-.2-1.3,0-1.8.6-.7.2-.9.7-.7,1.3,0,.4.1.9.2,1.3-.3.8,0,1.6.5,2.2,0,.2,0,.4,0,.6-1,.7-1.9,1.6-2.6,2.6-.1.1-.2.3-.4.4-1.7.6-3.3,1.2-5,1.9-.3,0-.6.1-.9.2-.8,0-1.4.2-1.8.9-.4.2-.7.4-.9.9-.7.4-.7.7,0,1,1.1.8,2.3.3,3.4.4.9.3,1.8.1,2.6,0,.6,0,1.2-.1,1.8-.2.6.3,1,0,1.3-.4.1,0,.3-.1.4-.2.4,0,.8,0,1.3,0,.7.5,1.3.2,2,0,1.5-.4,2.6,0,2.9,1.7-.3,1.3-1.5,1.4-2.3,2-.4,0-.8.1-1.2.2-.8-.2-1.5-.3-2.1.3-.9,0-1.7.2-2.6.3-2.1-.4-4.1.2-6.1.2-2.2,0-3.2,1.2-3.2,3.8,0,2.2,1.8,1.8,3.1,2,.6,0,1.3.1,1.8-.3.7,0,1.4-.1,2.2-.2.9.3,1.6-.1,2.4-.4,2.5-1,5.1-2.2,7.9-1.2,0,.5.3.8.8.9,0,.1.2.3.2.4,0,1.5,1.1,2.8.9,4.3,0,.2-.2.3-.3.5-1,.4-2,.8-3,1.2-.2,0-.3,0-.5.1-3.3-.6-6.5-.5-9.8-.3-5.1-.4-10.3.2-15.4-.5-.5-.7-1.1-.7-1.7,0-.5,0-1,0-1.5,0-.7-.2-1.5-.5-1.9.5-.5,0-.9,0-1.4.1-1.5-1-2.9.2-4.4.1-.1,0-.2,0-.3-.2,0-.5,0-1-.6-1.2,0-.4,0-.8,0-1.2,1.1-1,2.1-2,3.2-3,1.3-.7,2.6-.4,3.9-.2,1.9,1.1,4.3.8,5.9-.6.9,0,1.8-.1,2.7-.2.8.6,1.5.9,2-.3.2-.3.3-.6.5-1,1.1-.6,1.2-1.3.1-2-.9-2.8-3.4-1.8-5.3-2.1-.4-.5-.8-.5-1.2,0-2.6-.2-5.1,1.5-7.7.6,0-.9-.6-1.8-.3-2.8.4-.2.7-.4.7-.9,0-.1.2-.2.3-.2,1.1-.2,2.3-.5,3.1-1.4.3,0,.7,0,1,0,.2.7.8.7,1.4.5,2,.1,3.9.2,5.9.3.3.8.7.9,1.1,0,.4-.2,1-.4.8-.8-.2-.8-1-.6-1.6-.6,0,0,0-.2,0-.3-.7-1.2-1.9-.6-2.9-.6-1.4-.5-2.8-.9-4.3-1.4-.3-.2-.6-.4-.9-.5-1.9-1.6-2.2-3.6-1.3-5.8.1,0,.2-.1.2-.2.4-.2.6-.6.7-1,.2-.3.5-.7.7-1,.6-.4,1.3-1.1.6-1.7-.7-.7-1.7-.3-2.4.4-1.2,0-2.4.3-3.5,0-.3-.6-.9-1.1-1.5-1.4,0-.6,0-1.2,0-1.7.2-.2.4-.5.6-.7.1,0,.2,0,.3-.1.9,0,1.9.1,2.7-.6.5,0,1.1-.1,1.6-.2,4,.6,7.9-.8,11.9.1,2.9.2,5.7.3,8.6.1.7.2,1.4.2,2.1,0,1,0,2,0,3,0,.7.6,1.3.6,1.7-.3ZM418,109.2c.9,0,1.7.1,2.5,0,1.5-.2,2-1.3,1.2-2.6-2.3-3.8-7.1-4.2-10.1-1-1.3,1.4-1.2,2,.7,2.7,1.8.7,3.7.9,5.6,1ZM416.1,116.1c-.4,0-.5.4-.5.8,0,.3.2.5.5.5.4,0,.5-.4.5-.8,0-.3-.2-.5-.5-.5Z"/>
      <path class="cls-5" d="M387.3,82.6c.5,0,.8-.2.9-.6,4.5,0,8.9-.6,13.4-1,4.7-.4,9.2,1.5,13.9,1.6,3.6,0,7.1,0,10.2-2.2,2.2-1.5,4.3-1.1,6.5-.2,1.1.4,1.6,1.3,1.4,2.4-.4,1.9-.6,3.9-2.1,5.4-1,1-1.9,2.1-2.3,3.5-.3,1.4-1.9,1.5-2.5,2.5-.6-.1-1.1-.2-1.7-.3-2.4-1.2-4.9-1-7.3,0-1,0-2,.1-3,.2-1.3-.4-2.4,0-3.4.6-3,0-5.9,0-8.9-.1-.2-.3-.5-.4-.8,0l-1.3-.2c-1.2-.9-2.3-.9-3.6-.1-2.7.6-3,1-2.9,3.7-.6,2.4-.9,4.8-1.2,7.3-.5.4-.8,1-.7,1.7-1,2.9-2.1,5.8-3.9,8.4-1.8,2.5-2.7,5.9-6.1,7.1-.6,0-1,.2-1.1.8-.5.2-1,.3-1.4.5-.3,0-.6,0-.8,0-.5-.5-.7-.3-.8.3-.4.1-.9.2-1.3.3-1.1-.3-2.3-.3-3.4-.1l-1.9-.5c-.1-1-.7-.9-1.4-.6-.5-.3-1.1-.5-1.6-.8-.9-1.4-2.2-2.3-3.8-2.8h-.1c.1-.9-.3-1.3-1-1.4h-.2c-.6-2.5,0-4.2,2-4.7,1.6-.4,2.4.9,3.6,1.3.2.3.4.6.6.8,0,.8.4,1.1,1.1,1.2l.5.5c0,.5.2.8.8.7,2.9.7,5.3-.1,7.5-2.1,4.5-4.1,5-9.7,5.8-15.3.3-1.3.4-2.6,0-3.9.1-1.5-1.1-3-.1-4.5,1-.5,2-1,3-1.5.4,0,.6,0,.8-.4,2.3,0,4.6-.2,6.8-.3,1.3.3,2.6.3,3.9,0,2.3.2,4.6.3,6.8,0,3.3,0,6.5.7,9.8-.3,1.8-.1,3.6,0,4.9-1.6.7-.3,1-.9.7-1.5-.3-.7-1-.3-1.5-.2-2.2.6-4.3.7-6.6.4-8.3-1.2-16.5-1.8-24.6,1.1-1.3.5-2.7.3-3.6-1,0-.9,0-1.8,0-2.6.7-.5,1.2-1.2,2-1.5Z"/>
    </g>
    <g id="_레이어_3" data-name="레이어_3">
      <path class="cls-2" d="M49.2,106.6c-2.4-2.2-2.7-5.8-.8-8.5.7-1.1,1.9-1.1,3-1.3.2,0,.5.2.7.3.3.8.6,1.6.5,2.5-.4.6,0,.7.4.8.2.7.8,1,1.3,1.4,0,.5.2.9.8.4.3,0,.6.2.9.2.6,1.3,1.5,1.3,2.5.7.7,0,1.4,0,2.2-.1.4,0,.9,0,1.3,0,.4,0,.9.1,1.3.2,1.2.7,2.1,0,2.9-.6.2,0,.5-.1.7-.2h0c.2,0,.4,0,.6-.1.5.6.7.2.8-.3.4,0,.8-.1,1.3-.2.8-.1,1.7-.4,2-1.1.4-.8-.7-1-1.1-1.6-1.4-2.3-3.9-3.4-5.5-5.4-.6-1-.9-2-.4-3.2,2.2-1.5,4.6-2.2,7.2-.9,1,.8,2.1,1.5,3.1,2.3,1.2,1.4,2.3,2.9,4.1,3.7.4.6.8.6,1.2,0,1.8-1.2,3.4-2.6,4.6-4.3,2-1.2,2.8-3.2,3.8-5.1,1.6-2.4,1.2-3.8-1.1-4.2-5.6-1-10.9-.8-16.1,2-2.5,1.3-5,3-8.1,3,0-.5-.3-.9-.7-1.2-1.6-1.7-1.3-3.2.6-4.6,3.4-2.4,7.4-2.3,11.2-3.1,2.3-.5,4.7.2,6.8-1.2,2.4,0,4.9,0,7.3,0,2.6.8,5.1,0,7.6,0,1.2,0,2.3.6,3.3,1,0,.2.1.5.2.7,0,1.2-.3,2.3.2,3.4,0,.2,0,.3,0,.5-.1.2-.3.3-.4.5-.9.2-.9.8-.6,1.5,0,.2-.1.5-.2.7-1.3.4-1.8,1.3-1.6,2.7,0,.1,0,.2-.2.3-.6,0-.8.4-.6,1-1.4,2.3-2.8,4.6-4.3,6.9-.5.3-1,.7-1.6,1-.4,0-.9,0-.6.7-.5,1.3-1.9,1.5-2.9,2.3-.9.3-1.2.7-.2,1.2.6,1.2,2.1,1.1,2.8,2,0,.6.4.8,1,.7.1,0,.2,0,.3.1,0,1.4,1.1,1.3,2.1,1.3,2.2,1.5,4.7,2.4,7.2,3.1.2.4.5.7,1,.5.5.1,1,.3,1.6.4.6.7,1.2,1.3,2.2.7.7,0,1.4,0,2.2.1.3.3.6.3.9,0,.7,0,1.4,0,2,0,.8.4,1.7.2,2.5.2,2.7,0,5.1-1.2,7.6-1.8,3.3-.7,3.5-.6,3.7,2.7-1.7,4.4-5.1,5.9-9.6,6.2-3.4.2-6.8-.5-10.1-.1-.3,0-.6,0-.9,0-1.9-.8-4-1.2-6-1.6-.4,0-.7-.2-1.1-.3-5.2-2.2-10-5.3-14.7-8.4-1.1-.7-2.5-1.1-3.9-.7h-.8c-.4-.2-.8-.1-1.2.1-2.8,1.6-5.9,2.6-9,3.2-.7,0-1.4,0-2.2,0-.4-.2-.9-.2-1.3,0-1,0-2-.1-3-.2-3.6-1.2-7.6-.9-11.1-2.8Z"/>
      <path class="cls-2" d="M280.3,118.5c1,1.7.5,3.2-.8,4.5-1.5,1.1-3.3,1-5.1,1.1-1.9,0-3.7-1-5.6-.8-.3,0-.6,0-.9-.1-.9-.7-1.9-.8-3-.7-.3,0-.6-.1-.9-.2-3.5-1.8-7.3-3.1-10.4-5.7-3.7-2.9-7.6-5.4-11.1-8.7-.6-.6-1.4-2-2.5-.4-.5,1.6-.4,3.2-.3,4.8,0,.2-.1.4-.2.7-.5.4-.7.8-.5,1.4-.4,5.6-.3,11.1,0,16.7-.2.6,0,1,.5,1.4.3,1.2.2,2.4.1,3.6-.7.3-.9,1-1.1,1.6-1.4,1.7-2.8.2-4.2,0-.7-1.2-1-2.4-.9-3.8,0-1.1.6-2.2.2-3.3,0-1.3.1-2.6.2-3.8.7-2.2.6-4.5,0-6.8.2-1.9,1.1-3.6.6-5.6.3-1.4.2-2.9.1-4.3,0-.4,0-.9-.5-.9-.6,0-1,.4-1.2,1h0c-.7.1-1.2.5-1.4,1.1-.1,0-.2,0-.3.2-.5,0-.8.3-1,.7-.2.2-.5.4-.7.5-.5,0-.8.3-1,.7-.4.2-.7.4-1.1.6-3.5,1.3-6.9,3-10.7,3.5-2.9.4-5.8.8-8.5,1.9-1.5.6-2.9.3-4.3-.5-.2-.5-.4-1-.6-1.5,0-.9,0-1.7,0-2.6.5-.3.8-.7.8-1.3.3-.2.6-.3.9-.5,1.4.3,2.4-1.1,3.8-.9h0c.6,1.2,1.4,2.1,2.9,1.8.8,0,1.6.2,2.2-.4.4,0,.8-.2,1.3-.3.9.3,1.6.1,2.1-.6.4,0,.8.2,1.3.3.9,0,1.6-.4,2.1-1.1,2.4-1.2,4.9-2.3,6.9-4.2,1.2-.5,2-1.4,2.6-2.6,1-1.2,2.3-2.3,2.8-3.9,1-.5.8-1.5.9-2.4.8-1.1.6-2.3.1-3.5,0-1.3-.1-2.6-.2-3.9,0-1.1,0-2.3,0-3.4,0-1.1,0-2.3,0-3.4.1-.8-.2-1.2-1-1-.3,0-.6,0-.9,0-1.1-.2-1.5.5-1.5,1.5,0,0-.1,0-.1.2-2.2,1.1-4.1,2.6-6,4.1-.6.5-.7,1.1.4,1.2,1.3.4,2,1.8,3.4,2,1.1.8,2.2,1.5,3.3,2.3,1.3.9,2.1,2,.9,3.6-1,1.4-2.3,1.9-3.9,1-1.8-1.1-3.6-2.3-5.4-3.4-3.4-2.1-4.5-1.9-7.4,1-.7,0-1.1.5-1.3,1.1-1.4,1-3,1.1-4.6.9-1.5-.7-2.1-1.8-1.8-3.4.5-.1.9-.5,1-1,1.7-.5,3.4-.9,4.6-2.3,2.7-2.4,5.9-4.2,7.9-7.3,1-.2,1.7-.6,1.8-1.8-.9,0-1.7.3-2.5.5-3.4,1-6.6,3.4-10.5,1.5-.2-.2-.5-.3-.7-.5-.4-.6-.7-1.2-1.1-1.8-.9-1.7-.7-3.1.8-4.4,3-2.6,6.3-3.6,10.2-2.2,1.6.6,3.4.3,5.1.3,2.3,0,4.7,0,7,0,1.7,0,2.4-.3,2.2-2.3-.5-3.8,1.9-5.8,5.3-4.7,1.6.6,2.2,1.5,1.9,3.2-.2,1.6-1.9,3.3-.5,4.6,1.2,1.1,2.9-.3,4.4-.5,4.5-.5,9-1.5,13.5-1.4.8,0,1.7-.2,2.5-.4,1.2-.4,2.3-1,3.1.5.7,1.3.6,2.6-.5,3.7-.2.2-.3.6-.5.9-.3.2-.5.4-.8.6-.3,0-.6.1-.9.2-1.1-.3-2,.3-2.5,1.1-1.4,2.3-3.1,4.4-5.2,6.1-.8.7-.6,1.3.2,1.7.6.3,1.1.9,1.9.8.3,0,.6.1.9.2,1.9,0,3.9.2,5.8.2,4.3,0,5.5,1.8,3.8,5.8-.5.1-.7.5-.7,1-1.3,0-2.4.8-3.8.4-2.9-1.9-6.2-3.2-9.4-4.6,0,0-.2-.1-.3-.1-.2-.4-.5-.6-1-.5-2.4-1-3.5,1.3-5.2,2.1-.8,0-1.5,0-2,.7-.3,0-.7,0-1,0-.4-.3-.8-.6-1.2-.9-1.7-1.3-2.1-.6-1.9,1.2-.4,1.8.9,2.7,2,3.4,2.5,1.7,4.6,3.9,7.1,5.7,2.2,2,4.8,3.5,7.3,5.1,0,.5.4.7.8.7.1,0,.2.2.4.2,3.1,3.8,7.5,4.8,11.9,5.9,3.5.9,7.4-.6,10.8,1.4ZM246.3,85.6c.4-.4.8-.7,1.2-1.1.9-.8,2-1.8.3-2.5-3.2-1.4-8,1.8-8.3,5.4,0,.8-.4,1.8.5,2.3.8.4,1.2-.5,1.8-.9.7-.4,1.4-1,2.1-1.5.2,0,.5-.2.7-.2.9-.2,1.4-.8,1.8-1.5Z"/>
      <path class="cls-2" d="M428.6,94.5c.6,0,1.1,0,1.7,0,.3.4.8.4,1.2.5,0,1.5.7,3.2-.8,4.4-.7-.2-1.3,0-1.8.6-.7.2-.9.7-.7,1.3,0,.4.1.9.2,1.3-.3.8,0,1.6.5,2.2,0,.2,0,.4,0,.6-1,.7-1.9,1.6-2.6,2.6-.1.1-.2.3-.4.4-1.7.6-3.3,1.2-5,1.9-.3,0-.6.1-.9.2-.8,0-1.4.2-1.8.9-.4.2-.7.4-.9.9-.7.4-.7.7,0,1,1.1.8,2.3.3,3.4.4.9.3,1.8.1,2.6,0,.6,0,1.2-.1,1.8-.2.6.3,1,0,1.3-.4.1,0,.3-.1.4-.2.4,0,.8,0,1.3,0,.7.5,1.3.2,2,0,1.5-.4,2.6,0,2.9,1.7-.3,1.3-1.5,1.4-2.3,2-.4,0-.8.1-1.2.2-.8-.2-1.5-.3-2.1.3-.9,0-1.7.2-2.6.3-2.1-.4-4.1.2-6.1.2-2.2,0-3.2,1.2-3.2,3.8,0,2.2,1.8,1.8,3.1,2,.6,0,1.3.1,1.8-.3.7,0,1.4-.1,2.2-.2.9.3,1.6-.1,2.4-.4,2.5-1,5.1-2.2,7.9-1.2,0,.5.3.8.8.9,0,.1.2.3.2.4,0,1.5,1.1,2.8.9,4.3,0,.2-.2.3-.3.5-1,.4-2,.8-3,1.2-.2,0-.3,0-.5.1-3.3-.6-6.5-.5-9.8-.3-5.1-.4-10.3.2-15.4-.5-.5-.7-1.1-.7-1.7,0-.5,0-1,0-1.5,0-.7-.2-1.5-.5-1.9.5-.5,0-.9,0-1.4.1-1.5-1-2.9.2-4.4.1-.1,0-.2,0-.3-.2,0-.5,0-1-.6-1.2,0-.4,0-.8,0-1.2,1.1-1,2.1-2,3.2-3,1.3-.7,2.6-.4,3.9-.2,1.9,1.1,4.3.8,5.9-.6.9,0,1.8-.1,2.7-.2.8.6,1.5.9,2-.3.2-.3.3-.6.5-1,1.1-.6,1.2-1.3.1-2-.9-2.8-3.4-1.8-5.3-2.1-.4-.5-.8-.5-1.2,0-2.6-.2-5.1,1.5-7.7.6,0-.9-.6-1.8-.3-2.8.4-.2.7-.4.7-.9,0-.1.2-.2.3-.2,1.1-.2,2.3-.5,3.1-1.4.3,0,.7,0,1,0,.2.7.8.7,1.4.5,2,.1,3.9.2,5.9.3.3.8.7.9,1.1,0,.4-.2,1-.4.8-.8-.2-.8-1-.6-1.6-.6,0,0,0-.2,0-.3-.7-1.2-1.9-.6-2.9-.6-1.4-.5-2.8-.9-4.3-1.4-.3-.2-.6-.4-.9-.5-1.9-1.6-2.2-3.6-1.3-5.8.1,0,.2-.1.2-.2.4-.2.6-.6.7-1,.2-.3.5-.7.7-1,.6-.4,1.3-1.1.6-1.7-.7-.7-1.7-.3-2.4.4-1.2,0-2.4.3-3.5,0-.3-.6-.9-1.1-1.5-1.4,0-.6,0-1.2,0-1.7.2-.2.4-.5.6-.7.1,0,.2,0,.3-.1.9,0,1.9.1,2.7-.6.5,0,1.1-.1,1.6-.2,4,.6,7.9-.8,11.9.1,2.9.2,5.7.3,8.6.1.7.2,1.4.2,2.1,0,1,0,2,0,3,0,.7.6,1.3.6,1.7-.3ZM416.1,106c.9,0,1.7.1,2.5,0,1.5-.2,2-1.3,1.2-2.6-2.3-3.8-7.1-4.2-10.1-1-1.3,1.4-1.2,2,.7,2.7,1.8.7,3.7.9,5.6,1ZM414.2,113c-.4,0-.5.4-.5.8,0,.3.2.5.5.5.4,0,.5-.4.5-.8,0-.3-.2-.5-.5-.5Z"/>
      <path class="cls-2" d="M385.4,79.4c.5,0,.8-.2.9-.6,4.5,0,8.9-.6,13.4-1,4.7-.4,9.2,1.5,13.9,1.6,3.6,0,7.1,0,10.2-2.2,2.2-1.5,4.3-1.1,6.5-.2,1.1.4,1.6,1.3,1.4,2.4-.4,1.9-.6,3.9-2.1,5.4-1,1-1.9,2.1-2.3,3.5-.3,1.4-1.9,1.5-2.5,2.5-.6-.1-1.1-.2-1.7-.3-2.4-1.2-4.9-1-7.3,0-1,0-2,.1-3,.2-1.3-.4-2.4,0-3.4.6-3,0-5.9,0-8.9-.1-.2-.3-.5-.4-.8,0l-1.3-.2c-1.2-.9-2.3-.9-3.6-.1-2.7.6-3,1-2.9,3.7-.6,2.4-.9,4.8-1.2,7.3-.5.4-.8,1-.7,1.7-1,2.9-2.1,5.8-3.9,8.4-1.8,2.5-2.7,5.9-6.1,7.1-.6,0-1,.2-1.1.8-.5.2-1,.3-1.4.5-.3,0-.6,0-.8,0-.5-.5-.7-.3-.8.3-.4.1-.9.2-1.3.3-1.1-.3-2.3-.3-3.4-.1l-1.9-.5c-.1-1-.7-.9-1.4-.6-.5-.3-1.1-.5-1.6-.8-.9-1.4-2.2-2.3-3.8-2.8h-.1c.1-.9-.3-1.3-1-1.4h-.2c-.6-2.5,0-4.2,2-4.7,1.6-.4,2.4.9,3.6,1.3.2.3.4.6.6.8,0,.8.4,1.1,1.1,1.2l.5.5c0,.5.2.8.8.7,2.9.7,5.3-.1,7.5-2.1,4.5-4.1,5-9.7,5.8-15.3.3-1.3.4-2.6,0-3.9.1-1.5-1.1-3-.1-4.5,1-.5,2-1,3-1.5.4,0,.6,0,.8-.4,2.3,0,4.6-.2,6.8-.3,1.3.3,2.6.3,3.9,0,2.3.2,4.6.3,6.8,0,3.3,0,6.5.7,9.8-.3,1.8-.1,3.6,0,4.9-1.6.7-.3,1-.9.7-1.5-.3-.7-1-.3-1.5-.2-2.2.6-4.3.7-6.6.4-8.3-1.2-16.5-1.8-24.6,1.1-1.3.5-2.7.3-3.6-1,0-.9,0-1.8,0-2.6.7-.5,1.2-1.2,2-1.5Z"/>
    </g>
  </g>
</svg>